# xmcd
#
# Track frame offsets: 
#        150
#        31002
#        44223
#        59027
#        82152
#        112769
#        136289
#        177094
#        192724
#        206766
#        221268
#        235294
#        260566
#        275321
#        289325
#
# Disc length: 4047 seconds
#
# Revision: 0
# Processed by: cddbd v1.5.2PL0 Copyright (c) Steve Scherf et al.
# Submitted via: ExactAudioCopyFreeDBPlugin 1.0
#
DISCID=ec0fcd0f
DTITLE=Louis Armstrong - The Quintessence 3  NY-Chicago-Boston 1947-19
DTITLE=52 [CD2]
DYEAR=2004
DGENRE=Blues
TTITLE0=On The Sunny Side Of The Street (1947)
TTITLE1=Blueberry Hill (1949)
TTITLE2=You Can't Lose A Broken Heart (1949)
TTITLE3=Panama (1950)
TTITLE4=New Orleans Function (1950)
TTITLE5=That's For Me (1950)
TTITLE6=Bugle Call Rag (1950)
TTITLE7=La Vie En Rose (1950)
TTITLE8=C'est Si Bon (1950)
TTITLE9=You Rascal You (1950)
TTITLE10=Dream A Little Dream Of Me (1950)
TTITLE11=Indiana (1951)
TTITLE12=You Can Depend On Me (1951)
TTITLE13=I'll Walk Alone (1952)
TTITLE14=Kiss Of Fire (1952)
EXTD=
EXTT0=
EXTT1=
EXTT2=
EXTT3=
EXTT4=
EXTT5=
EXTT6=
EXTT7=
EXTT8=
EXTT9=
EXTT10=
EXTT11=
EXTT12=
EXTT13=
EXTT14=
PLAYORDER=
